<?xml version="1.0" standalone="no"?>
<!DOCTYPE svg PUBLIC "-//W3C//DTD SVG 20010904//EN"
 "http://www.w3.org/TR/2001/REC-SVG-20010904/DTD/svg10.dtd">
<svg version="1.0" xmlns="http://www.w3.org/2000/svg"
 width="748.000000pt" height="748.000000pt" viewBox="0 0 748.000000 748.000000"
 preserveAspectRatio="xMidYMid meet">
<metadata>
Created by potrace 1.14, written by Peter Selinger 2001-2017
</metadata>
<g transform="translate(0.000000,748.000000) scale(0.100000,-0.100000)"
fill="#000000" stroke="none">
<path d="M4473 6597 c9 -8 17 -17 17 -21 0 -9 -24 -3 -32 9 -5 6 -12 5 -20 -4
-11 -12 -10 -12 2 -6 13 8 13 7 1 -8 -14 -18 -26 -23 -17 -8 3 5 -7 14 -24 19
-21 8 -32 8 -36 0 -5 -7 -2 -8 6 -3 9 5 11 4 6 -3 -10 -17 -26 -15 -26 3 0 8
-4 15 -9 15 -5 0 -7 -10 -4 -22 4 -22 3 -22 -11 2 -11 19 -15 21 -16 8 0 -9
-5 -20 -12 -24 -7 -4 -8 -3 -4 4 4 7 2 12 -4 12 -6 0 -8 5 -4 12 4 7 3 8 -5 4
-6 -4 -9 -11 -7 -15 3 -4 -1 -8 -9 -8 -8 0 -12 4 -9 8 2 4 -1 11 -7 15 -8 4
-9 3 -5 -4 4 -6 -4 -16 -16 -23 -21 -11 -22 -11 -9 5 12 14 12 16 -3 10 -9 -3
-16 -11 -16 -18 0 -6 -4 -5 -9 3 -14 21 -44 24 -36 3 3 -9 3 -13 -1 -9 -4 4
-13 2 -20 -4 -8 -7 -14 -6 -20 2 -4 7 -3 9 4 5 6 -3 13 -2 16 3 7 11 -13 9
-33 -3 -9 -6 -12 -5 -7 2 3 6 1 14 -5 18 -8 4 -9 3 -5 -5 5 -8 0 -10 -18 -7
-15 3 -30 -2 -37 -11 -12 -13 -14 -13 -26 3 -12 17 -13 17 -13 0 0 -11 -4 -14
-12 -9 -22 13 -88 10 -88 -4 0 -7 -5 -13 -11 -13 -5 0 -7 5 -4 10 3 6 -3 10
-15 10 -12 0 -19 -4 -16 -8 2 -4 -4 -9 -15 -9 -13 -1 -17 2 -12 10 4 7 1 7
-10 -1 -9 -8 -20 -11 -26 -8 -11 7 -23 -22 -14 -36 4 -7 1 -8 -6 -4 -7 5 -10
13 -8 20 3 6 -3 12 -13 12 -10 0 -16 -4 -14 -8 3 -4 -2 -8 -11 -8 -9 0 -13 -5
-10 -10 4 -6 11 -7 17 -4 7 5 8 2 4 -5 -6 -9 -12 -9 -25 3 -10 9 -21 13 -24 9
-4 -3 -7 0 -7 8 0 12 -2 12 -9 0 -5 -8 -6 -21 -3 -30 4 -13 3 -14 -9 -5 -24
18 -44 11 -43 -16 2 -23 1 -24 -13 -5 -15 19 -15 19 -10 -2 3 -13 1 -23 -4
-23 -5 0 -9 5 -9 10 0 6 -5 10 -12 10 -6 0 -9 -3 -6 -6 3 -3 -4 -16 -17 -30
-23 -25 -42 -33 -29 -12 4 6 3 8 -4 4 -6 -3 -9 -15 -7 -26 2 -11 -1 -23 -7
-26 -7 -4 -8 -2 -4 4 13 22 -9 12 -39 -16 -47 -44 -96 -102 -87 -102 4 0 14 6
22 13 8 6 7 3 -3 -9 -9 -11 -15 -24 -12 -27 3 -4 -1 -3 -7 3 -20 16 -31 11
-17 -7 7 -10 10 -15 5 -11 -10 8 -29 -9 -39 -35 -4 -10 -12 -16 -19 -12 -7 4
-4 -1 6 -9 18 -15 19 -16 2 -16 -13 0 -16 -5 -12 -16 5 -13 3 -14 -7 -6 -10 8
-13 6 -14 -10 -1 -11 -10 -27 -20 -35 -11 -9 -12 -12 -3 -8 10 4 9 2 -2 -8
-21 -16 -24 -32 -5 -21 8 5 8 3 -2 -9 -7 -9 -18 -14 -23 -11 -6 4 -5 -4 2 -16
7 -12 8 -20 2 -16 -5 3 -16 -2 -23 -11 -10 -11 -10 -14 -2 -9 9 5 11 2 7 -8
-3 -9 -10 -14 -15 -11 -4 3 -6 -3 -4 -14 3 -15 0 -18 -13 -14 -15 6 -16 5 -2
-12 8 -10 10 -16 4 -12 -16 10 -34 -15 -29 -41 2 -13 -1 -19 -8 -16 -13 4 -40
-44 -31 -57 3 -5 1 -9 -5 -9 -5 0 -8 -9 -6 -21 4 -18 2 -19 -12 -7 -15 11 -15
11 -6 -7 9 -15 8 -22 -5 -33 -10 -7 -11 -10 -3 -6 9 5 12 3 7 -4 -4 -7 -14
-12 -22 -12 -8 0 -12 -5 -9 -10 4 -6 12 -7 18 -3 7 3 4 -3 -5 -14 -10 -11 -18
-27 -18 -36 0 -9 -6 -17 -12 -17 -9 0 -8 -3 2 -10 8 -5 11 -12 7 -16 -4 -4 -1
-14 6 -22 10 -13 9 -15 -5 -9 -12 4 -15 2 -11 -8 3 -8 10 -12 17 -9 6 3 3 -1
-6 -8 -15 -13 -15 -15 0 -26 9 -7 12 -10 6 -7 -7 2 -15 -2 -18 -11 -4 -10 -2
-13 7 -8 8 5 7 2 -2 -9 -11 -14 -11 -17 0 -17 8 0 6 -6 -7 -16 -10 -8 -14 -13
-7 -10 6 4 14 2 18 -4 3 -5 -1 -10 -9 -10 -12 0 -14 -5 -6 -26 6 -14 6 -23 1
-20 -5 3 -11 -1 -14 -9 -4 -9 -1 -12 9 -8 10 4 12 0 8 -11 -3 -9 -11 -13 -18
-9 -6 3 -6 1 2 -8 13 -15 17 -43 4 -35 -5 3 -9 -1 -9 -9 0 -8 5 -11 11 -8 6 3
5 0 -1 -8 -7 -7 -13 -17 -13 -22 0 -4 6 -5 13 -1 6 4 4 -2 -6 -13 -14 -16 -15
-23 -6 -29 8 -5 10 -3 4 7 -5 8 -4 10 0 6 15 -13 15 -39 0 -33 -9 3 -12 -3
-10 -20 1 -13 -2 -24 -8 -24 -5 0 -7 -11 -5 -24 3 -16 0 -27 -9 -30 -11 -5
-10 -11 4 -33 10 -15 13 -24 7 -20 -7 4 -14 0 -18 -8 -3 -8 0 -17 6 -21 6 -4
8 -3 5 3 -3 5 0 10 7 10 7 0 13 -6 13 -13 0 -7 -5 -10 -10 -7 -7 4 -8 -1 -3
-12 5 -14 4 -16 -7 -7 -10 9 -14 8 -14 -3 0 -8 4 -15 8 -15 4 0 10 -7 13 -16
3 -8 2 -12 -3 -9 -5 3 -12 1 -15 -4 -3 -5 1 -12 10 -15 15 -6 15 -8 0 -24 -12
-14 -13 -21 -4 -30 9 -9 9 -12 -2 -12 -7 0 -10 -3 -7 -6 4 -4 14 -1 23 7 16
13 16 12 5 -8 -8 -16 -8 -23 -1 -23 6 0 8 -5 5 -10 -4 -6 -11 -8 -16 -5 -5 3
-6 -1 -3 -9 3 -9 11 -13 18 -9 6 3 3 -3 -8 -15 -17 -20 -18 -22 -2 -28 14 -5
15 -9 4 -15 -10 -7 -9 -9 5 -9 9 0 17 -5 17 -11 0 -5 -5 -7 -12 -3 -7 4 -8 3
-4 -4 4 -7 15 -12 24 -13 14 0 13 -2 -3 -9 -11 -5 -14 -9 -7 -9 6 -1 12 -6 12
-12 0 -5 -6 -7 -12 -4 -7 4 -5 0 5 -8 17 -15 24 -33 8 -23 -5 4 -7 -3 -4 -13
3 -13 12 -18 24 -16 11 2 17 0 14 -6 -4 -5 -11 -7 -16 -4 -5 4 -9 0 -10 -7 0
-7 -2 -21 -4 -30 -2 -10 0 -18 5 -18 4 0 6 -11 5 -25 -2 -14 2 -25 8 -25 5 0
7 -3 4 -7 -4 -3 -2 -12 3 -18 8 -9 6 -14 -5 -19 -13 -4 -14 -10 -5 -26 8 -16
8 -20 -2 -18 -8 2 -12 -4 -10 -14 2 -10 -1 -18 -6 -18 -5 0 -8 -13 -6 -30 2
-16 0 -30 -4 -30 -12 0 -12 -39 -1 -46 6 -4 6 -11 -2 -20 -6 -8 -7 -14 -2 -14
5 0 8 -13 7 -30 -1 -16 1 -30 5 -30 4 0 6 -13 5 -30 -1 -16 1 -30 4 -30 4 0 8
-12 9 -27 0 -15 6 -29 12 -31 6 -2 11 -8 11 -13 0 -6 -4 -7 -10 -4 -14 8 -13
1 5 -42 19 -45 19 -52 -1 -27 -15 18 -15 18 -5 -2 6 -12 7 -25 3 -29 -4 -3 -2
-6 3 -5 22 5 27 -1 14 -17 -7 -10 -10 -15 -5 -11 4 4 14 2 21 -5 10 -9 9 -14
-3 -23 -12 -9 -12 -13 -2 -19 9 -6 11 -4 5 5 -5 9 -4 11 4 6 9 -6 9 -11 -1
-23 -10 -12 -9 -17 3 -27 9 -6 14 -17 12 -23 -3 -7 -1 -13 5 -13 5 0 9 -7 9
-15 0 -11 -4 -12 -14 -4 -22 19 -15 1 10 -22 12 -12 16 -19 9 -15 -14 8 -12
-28 3 -41 4 -5 5 -2 0 6 -6 10 -4 12 4 7 9 -6 9 -11 0 -22 -8 -10 -8 -14 0
-14 6 0 11 -9 11 -21 0 -15 5 -19 15 -15 12 4 13 2 5 -13 -8 -15 -5 -20 13
-25 17 -5 19 -8 8 -15 -11 -7 -9 -11 8 -20 11 -7 21 -9 21 -5 0 4 9 -3 19 -15
14 -16 21 -18 24 -9 3 8 6 6 6 -6 1 -15 4 -16 16 -6 13 11 14 10 10 -3 -4 -8
-1 -18 6 -23 8 -5 10 -3 4 7 -5 8 -4 11 1 6 5 -5 10 -13 10 -18 1 -5 2 -10 4
-11 6 -9 7 -37 0 -33 -4 2 -7 -6 -7 -20 0 -16 4 -22 11 -18 6 4 5 -1 -3 -10
-7 -9 -11 -28 -9 -41 3 -14 2 -25 -1 -24 -19 2 -24 -4 -11 -12 10 -7 11 -13 5
-17 -6 -5 -11 -17 -10 -28 0 -11 -4 -23 -10 -27 -13 -10 -13 -31 0 -40 6 -5 3
-8 -7 -8 -9 0 -20 -5 -24 -12 -4 -7 -3 -8 4 -4 8 5 10 2 6 -8 -3 -9 -9 -15
-12 -14 -19 2 -23 -4 -12 -17 11 -13 10 -14 -3 -10 -8 4 -18 2 -22 -4 -3 -6 0
-11 7 -11 8 0 6 -5 -5 -11 -9 -5 -21 -8 -25 -5 -5 3 -9 -1 -9 -9 0 -8 5 -11
10 -8 6 3 7 1 3 -6 -6 -9 -11 -9 -22 0 -12 10 -13 9 -8 -6 5 -13 4 -16 -4 -11
-8 4 -12 0 -13 -11 0 -12 -2 -13 -6 -5 -4 10 -9 8 -20 -7 -8 -12 -18 -19 -23
-16 -5 3 -11 1 -14 -4 -4 -6 -18 -6 -35 -1 -16 4 -32 6 -35 2 -3 -3 -6 0 -6 6
0 7 -12 12 -26 12 -16 0 -23 4 -18 12 4 7 3 8 -4 4 -6 -4 -21 -2 -33 5 -12 6
-19 7 -15 1 3 -5 -1 -13 -10 -16 -8 -3 -12 -2 -9 4 3 6 1 10 -4 10 -6 0 -11
-8 -12 -17 0 -15 -2 -15 -9 2 -7 18 -8 19 -15 3 -4 -10 -12 -15 -19 -11 -6 4
-5 -1 3 -10 8 -10 11 -20 7 -24 -3 -3 -6 -1 -6 5 0 7 -8 12 -17 12 -15 0 -16
-2 -3 -10 13 -9 7 -14 -12 -11 -5 0 -8 -5 -8 -12 0 -8 -4 -7 -10 3 -8 13 -10
13 -10 -2 0 -9 -5 -20 -11 -24 -8 -4 -9 1 -5 17 6 21 5 21 -4 6 -6 -9 -15 -15
-21 -12 -5 4 -9 0 -9 -8 0 -24 -26 -27 -49 -6 -20 19 -25 17 -22 -6 1 -5 -7 0
-18 13 -18 21 -38 31 -27 14 3 -5 -1 -9 -9 -9 -8 0 -14 3 -13 6 2 22 -4 30
-19 24 -11 -4 -14 -3 -9 5 7 12 -10 16 -44 13 -13 -2 -13 -1 0 8 13 9 13 13
-3 28 -10 10 -17 14 -16 8 4 -23 -2 -28 -14 -11 -12 16 -17 17 -38 6 -22 -12
-23 -12 -10 3 15 19 8 22 -20 7 -14 -8 -19 -7 -19 1 0 9 -3 9 -14 0 -10 -9
-16 -9 -21 -1 -5 8 -14 6 -31 -4 -22 -15 -23 -15 -18 1 4 12 -1 10 -16 -7 -12
-14 -19 -19 -15 -12 3 6 1 12 -4 12 -6 0 -12 -4 -12 -10 -1 -5 -3 -14 -4 -20
-1 -5 -3 -13 -4 -16 0 -4 -8 -1 -16 6 -12 10 -15 10 -15 0 0 -8 -3 -10 -7 -7
-3 4 -13 1 -21 -6 -13 -10 -15 -9 -8 7 7 20 7 20 -15 0 -12 -10 -19 -13 -14
-5 6 11 4 13 -10 7 -16 -6 -16 -4 -4 11 9 10 9 14 2 10 -7 -5 -27 -1 -45 8
-29 14 -31 14 -14 0 11 -8 15 -15 8 -15 -7 0 -17 8 -23 18 -10 15 -19 17 -50
12 -21 -4 -38 -4 -37 -1 2 19 -4 24 -12 11 -6 -10 -10 -11 -10 -2 0 6 -5 12
-11 12 -5 0 -7 -6 -3 -12 6 -10 4 -10 -7 0 -7 6 -21 12 -30 12 -10 0 -20 6
-22 13 -3 6 -6 3 -7 -8 -1 -18 -2 -18 -15 5 -8 14 -14 20 -15 14 0 -7 -13 -10
-30 -9 -17 1 -33 -2 -37 -8 -4 -6 -1 -7 7 -2 8 5 11 4 6 -3 -4 -6 -13 -9 -21
-6 -8 4 -13 9 -11 13 3 4 -11 7 -29 7 -18 0 -32 -3 -29 -7 2 -4 -3 -10 -12
-13 -8 -3 -12 -2 -9 4 3 6 1 10 -4 10 -6 0 -11 -5 -11 -11 0 -8 -5 -8 -15 1
-11 10 -15 10 -15 0 0 -6 -6 -10 -13 -7 -6 2 -21 -3 -31 -12 -11 -9 -16 -10
-12 -3 10 17 -5 15 -33 -4 -19 -14 -25 -14 -32 -3 -7 12 -9 12 -9 0 0 -8 -6
-11 -16 -7 -12 4 -15 2 -10 -9 3 -8 1 -15 -5 -15 -6 0 -7 -5 -3 -12 4 -7 3 -8
-5 -4 -6 4 -9 12 -6 17 9 14 -8 11 -31 -6 -12 -8 -24 -11 -28 -8 -3 3 -6 -2
-6 -12 0 -18 -1 -18 -13 -1 -12 17 -14 17 -28 -1 -13 -17 -13 -17 6 -3 19 14
19 14 6 -3 -10 -13 -17 -15 -27 -6 -11 9 -15 7 -20 -6 -5 -13 -9 -14 -15 -3
-6 8 -9 9 -9 1 0 -6 -13 -10 -29 -9 -17 1 -28 -1 -25 -5 2 -4 0 -10 -6 -14 -6
-4 -7 -11 -4 -17 4 -7 2 -8 -5 -4 -6 4 -9 12 -6 17 4 5 -1 9 -9 9 -9 0 -15 -6
-13 -12 1 -7 -4 -12 -10 -11 -7 2 -13 -5 -13 -15 0 -14 -2 -15 -10 -2 -8 12
-10 10 -10 -9 0 -20 -2 -22 -16 -11 -12 11 -15 11 -12 0 2 -8 -3 -14 -10 -15
-17 0 -31 -25 -25 -43 5 -11 1 -13 -18 -7 -13 4 -21 4 -17 0 13 -14 -12 -33
-35 -27 -19 5 -20 3 -9 -10 11 -14 10 -16 -10 -11 -13 3 -20 2 -16 -2 4 -4 -8
-20 -28 -36 -19 -15 -35 -31 -35 -36 1 -8 -3 -10 -41 -12 -18 -1 -20 -3 -9
-10 8 -5 21 -7 30 -5 9 3 5 -1 -9 -8 -14 -7 -33 -21 -43 -32 -9 -10 -17 -14
-17 -7 0 9 -4 8 -14 -1 -8 -7 -12 -16 -9 -20 2 -5 -3 -8 -12 -8 -10 0 -13 -5
-9 -12 5 -7 2 -9 -9 -5 -9 3 -18 0 -21 -9 -4 -10 -2 -12 6 -8 7 4 8 3 4 -4 -4
-6 -14 -8 -23 -5 -11 4 -14 3 -9 -5 4 -7 1 -12 -7 -12 -8 0 -25 -9 -38 -21
l-24 -21 25 16 c13 9 29 16 35 16 5 -1 -3 -8 -20 -17 -16 -10 -36 -16 -44 -14
-8 1 -12 -3 -8 -11 2 -8 -2 -23 -10 -33 -13 -17 -15 -17 -10 -2 4 9 3 17 -2
17 -5 0 -11 -10 -14 -22 -5 -18 -8 -19 -22 -8 -13 11 -14 10 -9 -5 5 -13 4
-16 -4 -11 -7 4 -12 1 -12 -8 0 -9 -3 -15 -7 -14 -5 1 -18 -4 -31 -11 -18 -9
-21 -15 -12 -26 7 -8 7 -15 1 -19 -5 -3 -12 0 -15 6 -4 7 -5 4 -2 -8 4 -24
-28 -49 -47 -37 -7 4 -5 -2 3 -12 13 -17 13 -18 -1 -13 -12 5 -16 1 -15 -15 1
-12 -7 -28 -17 -36 -13 -9 -15 -17 -9 -23 12 -12 4 -40 -9 -32 -5 3 -6 -2 -2
-11 3 -10 1 -20 -4 -24 -18 -11 -32 -68 -20 -80 7 -7 6 -12 -6 -17 -9 -3 -14
-10 -11 -15 3 -5 10 -7 15 -4 5 3 6 -1 3 -9 -3 -9 -13 -12 -22 -9 -14 5 -14 3
1 -8 17 -14 17 -16 -10 -39 l-28 -25 20 26 c11 14 2 7 -19 -15 -22 -23 -34
-34 -27 -24 9 13 9 18 0 24 -7 4 -9 3 -5 -4 3 -6 -3 -16 -14 -22 -14 -7 -19
-17 -16 -27 6 -14 4 -14 -11 -2 -10 7 -15 10 -11 5 9 -11 -19 -39 -32 -31 -5
3 -7 0 -4 -8 3 -8 0 -18 -7 -23 -7 -4 -10 -3 -5 4 3 6 2 13 -4 17 -10 6 -14
-7 -11 -34 2 -7 -2 -10 -8 -6 -6 3 -11 1 -11 -5 0 -6 -5 -8 -12 -4 -8 5 -9 0
-6 -14 4 -12 2 -20 -2 -17 -5 3 -12 0 -15 -6 -4 -5 -14 -8 -22 -5 -8 3 -11 1
-8 -4 3 -6 -2 -10 -12 -10 -15 0 -16 -2 -3 -10 8 -5 12 -10 8 -11 -5 -1 -12
-3 -18 -4 -5 -1 -13 -3 -17 -4 -5 -1 -1 -6 7 -11 13 -8 12 -10 -3 -10 -9 0
-22 -11 -29 -25 -6 -13 -15 -22 -19 -19 -5 2 -9 -358 -9 -801 l0 -805 565 0
c450 0 565 3 559 13 -6 9 -5 9 7 0 15 -12 17 -8 21 44 1 7 5 10 10 7 5 -3 6
-9 3 -14 -3 -5 -1 -11 4 -15 6 -3 8 4 6 16 -2 12 2 28 10 36 9 8 12 19 9 25
-4 7 -2 8 4 4 7 -4 12 -2 12 3 0 6 -5 11 -12 11 -6 0 -8 3 -5 7 4 3 16 -3 27
-15 12 -12 17 -22 12 -22 -12 0 -2 -73 12 -83 6 -5 0 -5 -14 -2 -19 5 -22 4
-10 -4 10 -8 959 -11 3102 -11 2871 0 3087 1 3081 17 -4 10 -2 14 5 9 7 -4 9
2 6 20 -3 15 -1 23 5 20 10 -7 9 20 -2 30 -4 4 0 18 9 32 9 13 12 22 6 18 -5
-3 -15 1 -22 9 -11 13 -10 14 2 10 9 -4 15 0 15 10 0 8 -7 15 -16 15 -14 0
-14 2 -1 10 8 5 11 10 7 10 -4 0 -3 9 3 20 10 19 4 26 -23 21 -5 -1 -6 3 -2 9
3 6 11 8 16 5 13 -9 11 9 -3 24 -9 10 -9 12 -1 7 6 -3 14 -2 18 4 3 5 -2 10
-12 10 -10 0 -14 4 -8 8 14 10 17 64 3 56 -6 -4 -8 -3 -4 4 3 5 3 12 -1 15 -5
2 -2 2 6 0 8 -2 11 2 7 12 -3 8 -9 22 -13 32 -5 12 -3 14 8 8 8 -5 5 2 -5 14
-19 21 -19 21 -1 15 12 -5 16 -4 12 3 -4 6 -2 13 5 15 7 3 5 7 -6 11 -11 5
-15 3 -10 -5 5 -7 3 -8 -6 -3 -10 6 -9 11 4 21 16 12 16 13 -1 17 -13 3 -12 5
7 7 23 1 23 2 5 10 -11 5 -14 9 -6 9 11 1 11 4 1 16 -10 12 -9 15 4 15 10 0
15 4 11 10 -3 5 -13 7 -23 4 -14 -5 -14 -4 -2 4 8 6 18 8 22 6 4 -3 8 0 8 5 0
6 -5 11 -11 11 -5 0 -8 4 -4 10 3 5 11 8 18 6 7 -1 9 -1 5 1 -13 7 -9 43 5 43
9 0 9 2 -1 9 -11 7 -11 9 2 14 9 4 16 11 16 17 0 6 -6 8 -12 4 -7 -4 -3 4 9
17 18 20 20 28 11 37 -7 7 -8 12 -2 12 5 0 9 22 9 49 0 27 -4 47 -9 44 -4 -3
-5 5 -1 17 6 17 4 21 -6 14 -12 -6 -12 -5 0 9 9 12 10 17 2 17 -9 0 -9 5 -1
20 9 17 8 20 -7 20 -17 1 -17 1 -1 11 14 8 15 15 8 35 -6 14 -10 36 -10 50 0
13 -4 24 -10 24 -5 0 -10 5 -10 11 0 5 4 8 8 5 14 -8 8 40 -7 58 -7 9 -10 16
-5 16 5 0 2 5 -6 10 -10 6 -11 10 -3 10 9 0 7 6 -4 19 -9 11 -21 17 -26 14 -6
-3 -7 -1 -3 6 4 6 12 9 17 6 5 -4 4 5 -2 19 -7 14 -16 23 -22 19 -6 -3 -7 -1
-3 6 6 9 12 9 24 -1 15 -12 16 -11 3 5 -11 14 -11 17 0 17 8 0 6 5 -6 12 -11
7 -27 18 -35 27 -13 13 -13 14 3 8 9 -3 17 -2 17 3 0 6 -6 10 -12 10 -10 0 -9
3 1 9 10 7 11 9 1 13 -14 4 -23 38 -11 38 4 0 8 7 8 15 0 8 -4 15 -9 15 -4 0
-8 5 -8 11 0 5 4 8 8 5 14 -8 7 33 -8 47 -10 10 -11 9 -5 -2 6 -10 4 -12 -4
-7 -9 6 -8 12 4 26 11 13 13 20 5 25 -6 4 -14 4 -17 1 -4 -3 -1 -6 6 -6 7 0 9
-5 5 -11 -4 -8 -10 -5 -18 7 -14 24 -14 36 -3 51 5 7 5 18 1 24 -5 9 -11 7
-22 -7 -14 -18 -14 -18 -7 1 14 37 13 62 -1 62 -11 0 -11 -4 -2 -14 9 -11 7
-18 -8 -31 -10 -9 -13 -10 -6 -2 13 16 16 34 4 26 -7 -4 -12 18 -15 62 0 7 -7
10 -15 7 -11 -4 -12 -2 -4 8 7 8 7 18 2 27 -5 8 -7 17 -5 20 2 4 -2 7 -10 7
-11 0 -12 -4 -4 -14 6 -7 8 -13 3 -13 -5 0 -2 -5 6 -10 8 -5 11 -10 5 -10 -5
0 -17 5 -25 10 -12 8 -12 10 -1 10 10 0 11 3 2 14 -8 10 -9 16 -1 21 5 3 10
11 10 16 0 6 -7 3 -16 -5 -20 -20 -30 -21 -14 -1 14 17 1 20 -18 5 -9 -7 -9
-7 -2 2 15 18 12 39 -7 55 -12 8 -13 12 -4 11 7 -2 16 4 18 12 3 10 2 11 -4 3
-13 -18 -35 0 -36 30 -1 14 -4 24 -6 21 -2 -2 -10 4 -18 14 -10 13 -12 13 -10
2 2 -8 2 -12 0 -7 -3 4 -8 5 -12 2 -5 -2 -7 6 -6 20 2 15 -1 22 -9 19 -7 -3
-18 7 -26 20 -7 14 -17 23 -22 20 -4 -3 -8 3 -8 13 0 15 -2 16 -10 3 -8 -13
-10 -13 -10 1 0 9 -7 20 -16 23 -12 5 -14 3 -8 -7 5 -7 1 -4 -8 6 -10 11 -16
22 -13 26 2 4 -2 8 -10 8 -12 0 -12 -3 -2 -16 11 -14 10 -14 -6 -2 -12 9 -15
21 -11 34 6 20 6 20 -10 4 -10 -9 -23 -17 -29 -16 -9 0 -8 2 1 6 19 7 14 19
-12 31 -17 8 -27 7 -36 -1 -10 -9 -11 -9 -6 1 4 6 3 12 -3 12 -5 0 -11 6 -14
12 -2 7 -3 5 -2 -4 2 -10 -2 -21 -7 -25 -7 -4 -8 -1 -3 7 6 9 4 12 -7 8 -8 -4
-15 0 -15 8 0 7 4 11 9 8 4 -3 8 0 8 5 0 6 -7 11 -15 11 -10 0 -12 6 -8 18 6
15 5 15 -11 3 -15 -13 -18 -12 -23 8 -4 17 -8 19 -19 10 -10 -8 -14 -8 -14 0
0 6 -9 11 -20 11 -11 0 -20 5 -20 12 0 6 -3 8 -7 5 -3 -4 -13 -1 -21 6 -13 9
-14 9 -8 -1 4 -6 2 -12 -3 -12 -6 0 -11 6 -11 13 0 8 -4 7 -10 -3 -8 -13 -10
-12 -10 3 0 9 -5 17 -11 17 -5 0 -7 -4 -4 -10 3 -6 2 -10 -4 -10 -5 0 -15 8
-20 18 -8 12 -10 13 -11 3 0 -11 -4 -10 -16 5 -13 15 -15 16 -10 2 3 -12 1
-15 -10 -11 -7 3 -14 10 -15 17 0 6 -4 2 -9 -9 -7 -17 -9 -17 -9 -2 -1 18 -12
22 -25 9 -8 -8 -14 -9 -52 -11 -17 -1 -23 -5 -18 -14 6 -9 5 -9 -7 0 -12 10
-18 10 -27 1 -9 -9 -12 -9 -12 0 0 7 -11 12 -24 12 -13 0 -27 6 -29 13 -4 9
-6 9 -6 0 -1 -7 -6 -13 -12 -13 -5 0 -8 4 -5 9 9 14 -20 21 -33 8 -9 -9 -11
-8 -6 6 5 13 2 17 -13 17 -12 0 -26 8 -32 17 -11 17 -11 17 -6 1 7 -25 -10
-23 -27 3 -11 15 -16 17 -20 7 -3 -7 -6 -2 -6 12 -1 14 -5 21 -9 15 -4 -5 -13
-11 -21 -13 -12 -3 -12 0 -2 12 10 12 9 14 -8 9 -13 -3 -21 -1 -21 6 0 7 5 9
12 5 7 -4 8 -3 4 5 -6 9 -11 9 -24 -1 -13 -11 -14 -10 -4 9 10 19 9 20 -8 16
-11 -3 -20 -1 -20 5 0 5 -7 13 -16 16 -8 3 -12 2 -9 -4 8 -13 -26 -1 -47 17
-9 8 -20 13 -25 10 -5 -3 -17 1 -28 9 -10 8 -14 14 -9 14 6 0 15 -5 22 -12 9
-9 12 -9 12 1 0 7 5 9 12 5 7 -4 8 -3 4 4 -4 6 -14 8 -23 5 -10 -4 -14 -2 -10
4 4 6 -3 8 -18 5 -14 -2 -25 0 -25 6 0 5 -7 13 -16 16 -8 3 -12 2 -9 -4 3 -6
2 -10 -4 -10 -5 0 -15 8 -20 18 -10 16 -10 16 -11 -2 0 -18 -1 -18 -12 -4 -9
11 -31 18 -68 19 -30 1 -64 7 -75 12 -17 9 -18 8 -8 -5 10 -12 10 -15 -2 -15
-8 0 -15 5 -15 11 0 6 -5 3 -11 -6 -5 -10 -15 -18 -22 -18 -7 0 -6 4 3 10 8 5
10 10 4 10 -19 0 -24 -13 -11 -28 10 -13 9 -14 -9 -4 -17 9 -20 8 -19 -6 0
-10 4 -22 8 -29 5 -7 0 -9 -12 -6 -13 3 -18 11 -14 21 4 14 3 15 -5 2 -6 -8
-8 -18 -6 -22 3 -4 0 -8 -6 -8 -6 0 -8 -5 -4 -12 4 -7 3 -8 -4 -4 -7 4 -12 14
-12 22 0 8 -7 14 -15 14 -8 0 -15 5 -15 11 0 5 5 7 11 3 16 -9 -6 29 -25 45
-11 9 -13 19 -6 36 7 19 5 24 -7 27 -11 2 -17 15 -19 36 -2 22 1 30 9 25 7 -4
5 2 -3 13 -19 25 -32 34 -41 28 -4 -2 -13 4 -20 13 -10 12 -10 14 -1 9 8 -5
12 1 13 21 3 59 4 68 12 81 5 7 4 12 -3 12 -7 0 -8 5 -3 13 14 21 31 77 22 71
-5 -3 -9 -1 -9 5 0 5 7 14 15 19 9 4 17 18 18 30 1 12 5 22 10 22 4 0 5 5 1
11 -4 7 4 20 17 31 13 11 17 16 9 12 -12 -6 -13 -5 -3 8 7 8 9 19 5 23 -4 5
-1 4 7 0 11 -6 13 -4 8 8 -4 10 -2 14 6 11 9 -3 12 6 12 28 -1 18 3 39 9 47 9
12 8 13 -3 6 -9 -5 -7 2 5 18 10 15 27 27 37 27 10 0 15 5 12 11 -4 6 2 5 14
-3 12 -7 21 -16 21 -20 0 -4 7 -5 15 -2 8 4 15 1 15 -4 0 -6 8 -11 18 -11 9 0
33 -1 52 -2 53 -2 62 0 55 11 -3 5 2 10 13 10 25 0 34 11 21 26 -8 10 -6 12
10 9 26 -5 37 10 40 56 0 11 5 18 10 15 5 -4 8 5 7 19 -2 15 1 22 7 18 7 -4 8
0 3 12 -6 16 -4 16 11 4 15 -12 16 -12 11 7 -3 13 0 21 7 21 7 0 11 -7 8 -16
-2 -9 1 -8 8 4 16 25 21 47 8 39 -5 -3 -6 -10 -3 -16 5 -7 2 -8 -5 -3 -9 5 -7
13 8 29 12 12 21 28 21 35 0 7 5 9 10 6 13 -8 8 18 -5 27 -6 4 -2 8 8 8 10 0
17 8 17 21 0 13 4 18 12 13 8 -5 9 -2 5 9 -4 11 -1 17 9 17 8 0 12 5 9 10 -3
6 -1 10 6 10 6 0 9 8 6 20 -3 10 -2 18 2 17 3 -1 8 3 10 8 2 6 11 16 20 23 9
8 10 11 4 7 -17 -8 -4 26 14 40 7 6 14 24 16 42 2 26 5 29 16 20 12 -10 12 -9
3 10 -9 16 -9 24 0 29 7 5 8 3 3 -7 -5 -8 -4 -10 0 -6 13 11 15 38 3 31 -7 -5
-8 -2 -2 7 5 8 10 25 12 37 2 17 -1 22 -10 16 -11 -6 -11 -5 0 8 9 11 9 18 3
23 -7 4 -7 12 2 25 9 16 9 24 -1 41 -11 17 -11 20 0 14 8 -4 7 -1 -2 7 -8 7
-15 22 -15 33 0 24 -16 45 -30 37 -5 -3 -3 3 5 13 9 11 10 16 3 11 -9 -5 -13
0 -13 14 0 14 -4 19 -12 14 -10 -6 -10 -4 -2 7 18 24 26 51 11 43 -6 -4 -4 1
5 12 14 16 15 23 5 34 -9 10 -9 11 1 6 6 -4 12 -2 12 3 0 6 -6 11 -12 12 -7 0
-5 4 5 8 10 4 19 11 19 16 0 6 5 19 11 30 9 17 8 18 -4 8 -10 -8 -19 -9 -29
-1 -13 9 -13 9 0 5 19 -6 38 14 34 36 -1 10 5 21 14 24 13 6 13 8 -4 14 -17 7
-17 8 -1 8 13 1 16 7 13 25 -3 19 -1 23 10 19 10 -4 12 0 8 11 -4 10 -1 16 7
16 11 0 11 2 -1 10 -13 8 -13 11 -1 22 11 11 13 11 6 -1 -5 -9 -4 -12 3 -7 7
4 12 14 12 23 0 9 8 25 17 35 15 17 15 18 0 13 -9 -4 -19 -15 -22 -26 -4 -10
-11 -19 -16 -19 -6 0 -1 14 11 30 12 17 17 30 11 30 -6 0 -11 5 -11 11 0 8 5
7 16 -2 13 -10 17 -10 24 1 10 15 2 42 -10 35 -5 -3 -12 -1 -15 5 -4 6 -3 10
2 9 22 -4 43 2 43 12 0 6 -8 8 -17 5 -15 -5 -15 -4 1 9 13 10 15 15 6 15 -9 0
-8 5 6 16 10 8 14 13 8 10 -12 -6 -29 23 -19 32 3 3 5 0 5 -7 0 -7 5 -9 10 -6
6 4 8 11 4 16 -10 16 -12 59 -3 53 5 -3 9 0 9 6 0 6 4 9 9 6 5 -4 7 3 4 14 -3
11 -10 17 -16 13 -6 -3 -7 -1 -3 5 4 6 13 9 21 5 8 -3 15 0 15 7 0 6 -4 9 -9
5 -5 -3 -12 -1 -16 5 -3 5 -2 10 4 10 6 0 8 7 5 15 -4 8 0 23 7 32 10 12 10
15 2 9 -9 -5 -13 -1 -13 13 0 10 -5 21 -12 23 -7 3 -5 7 6 11 10 4 15 3 11 -3
-3 -6 -2 -10 4 -10 5 0 9 9 8 20 -1 12 -7 18 -14 16 -7 -3 -15 0 -19 7 -4 7
-4 9 1 5 4 -4 14 0 22 8 11 11 12 18 4 28 -6 7 -8 16 -4 20 13 12 11 35 -3 40
-7 3 -11 12 -8 21 3 8 9 13 13 11 4 -3 7 6 7 19 0 13 -4 21 -9 18 -6 -4 -8 5
-5 21 3 14 1 26 -3 26 -5 0 -9 5 -9 11 0 5 4 8 9 4 6 -3 8 4 6 17 -3 13 -9 24
-15 26 -5 2 -10 8 -10 13 0 6 6 7 13 3 10 -6 10 -4 0 7 -7 7 -13 17 -13 22 0
4 6 5 13 1 10 -6 10 -4 0 7 -7 7 -13 26 -13 41 0 15 -5 28 -11 28 -6 0 -8 9
-4 21 5 15 4 19 -4 15 -6 -4 -11 0 -11 9 0 10 5 13 12 9 7 -4 8 -3 4 5 -4 6
-12 9 -17 6 -5 -4 -9 -1 -9 5 0 6 -5 8 -12 4 -7 -4 -8 -3 -4 5 4 6 11 9 16 6
5 -3 12 -1 15 5 4 6 3 10 -2 9 -19 -3 -33 2 -33 12 0 5 5 7 12 3 7 -5 8 -3 4
5 -5 7 -18 16 -30 21 -17 7 -18 9 -3 9 10 1 15 6 12 11 -4 6 -11 7 -17 4 -6
-4 -8 1 -3 16 4 14 3 20 -3 16 -5 -3 -13 1 -16 10 -3 8 -2 12 3 9 5 -3 13 0
17 6 4 7 3 9 -3 6 -6 -4 -17 1 -24 10 -8 9 -9 14 -2 10 6 -4 10 -2 8 5 -9 38
-18 58 -27 58 -5 0 -6 -5 -2 -12 4 -7 3 -8 -4 -4 -9 5 -9 13 -1 27 10 19 9 20
-12 8 l-23 -12 18 28 c10 15 13 25 8 21 -12 -7 -37 69 -27 84 3 5 0 12 -6 16
-8 5 -9 3 -4 -7 5 -8 4 -10 0 -6 -9 7 -15 28 -17 55 -1 6 -6 12 -12 12 -6 0
-5 4 3 9 11 7 9 10 -8 16 -20 6 -25 16 -22 44 2 8 -2 10 -10 5 -9 -5 -10 -2
-6 9 4 12 1 17 -11 18 -11 0 -12 2 -4 6 9 3 6 11 -10 25 -16 14 -19 22 -10 25
6 3 12 9 12 15 0 7 -4 7 -12 1 -7 -6 -21 -13 -30 -16 -13 -4 -16 -1 -13 15 3
11 0 28 -6 37 -9 14 -10 14 -5 -2 3 -11 2 -15 -4 -12 -6 3 -10 13 -10 22 0 10
-6 13 -16 9 -11 -4 -15 -2 -11 8 8 19 -3 28 -19 15 -8 -7 -14 -6 -20 2 -5 8
-3 10 7 4 8 -5 1 5 -16 22 -16 16 -33 28 -37 26 -5 -2 -8 1 -8 6 0 6 -9 11
-20 11 -11 0 -20 5 -20 10 0 6 -9 10 -20 10 -11 0 -20 5 -20 11 0 5 5 7 12 3
7 -4 8 -3 4 4 -4 6 -14 8 -24 5 -9 -3 -14 -3 -10 2 13 13 -25 35 -39 23 -9 -7
-13 -7 -13 1 0 6 -7 11 -15 11 -8 0 -15 6 -15 13 0 8 -4 7 -10 -3 -8 -13 -10
-12 -10 3 0 9 -5 17 -11 17 -5 0 -8 -4 -4 -9 3 -5 1 -13 -5 -16 -6 -4 -9 -1
-8 5 2 6 -8 18 -22 27 -23 14 -24 14 -6 -1 23 -19 17 -20 -18 -5 -14 7 -23 16
-19 21 3 6 -4 5 -15 -1 -29 -16 -37 -14 -21 6 8 10 9 14 2 10 -6 -4 -14 -3
-17 2 -3 5 -21 8 -40 7 -23 -1 -32 3 -29 11 5 12 -8 18 -29 14 -5 0 -8 4 -8
10 0 8 -4 8 -14 0 -11 -9 -15 -9 -18 0 -3 9 -9 9 -27 -1 -15 -7 -21 -8 -17 -1
6 10 -6 15 -26 12 -5 0 -8 5 -8 11 0 9 -4 8 -10 -2 -9 -13 -10 -13 -11 0 -1 8
-1 18 0 22 1 8 -20 5 -35 -5 -7 -4 -18 1 -25 11 -13 16 -13 16 6 2 19 -14 19
-14 6 3 -10 13 -17 14 -26 7 -9 -8 -15 -8 -20 0 -3 6 -11 8 -16 5 -5 -3 -6 1
-2 11 5 14 3 15 -13 6 -15 -8 -25 -6 -44 8 -19 15 -28 16 -39 7 -12 -9 -13 -9
-7 1 7 12 -20 17 -69 14 -16 -2 -17 0 -5 8 9 6 10 10 3 10 -6 0 -18 3 -27 6
-9 3 -16 1 -16 -6 0 -6 5 -8 12 -4 7 4 8 3 4 -5 -10 -15 -26 -4 -26 17 0 15
-2 15 -10 2 -5 -8 -10 -10 -10 -5 0 6 -9 11 -20 11 -14 0 -19 -5 -15 -14 4
-11 -1 -10 -21 3 -15 9 -24 13 -20 7 3 -5 -1 -12 -9 -16 -8 -3 -14 -2 -14 2 3
21 -3 24 -17 6 -8 -10 -13 -14 -10 -8 8 16 -17 25 -35 13 -20 -13 -31 -11 -23
4 6 9 5 9 -7 0 -9 -7 -25 -11 -38 -8 -12 2 -19 0 -16 -6 8 -12 -6 -11 -25 1
-9 5 -19 5 -27 -2 -10 -8 -13 -7 -10 3 2 8 2 11 0 7 -3 -5 -14 -3 -26 3 -20 9
-20 9 -4 -4z m65 -32 c-3 -3 -9 2 -12 12 -6 14 -5 15 5 6 7 -7 10 -15 7 -18z
m-584 -23 c3 -5 -1 -9 -9 -9 -8 0 -12 4 -9 9 3 4 7 8 9 8 2 0 6 -4 9 -8z
m-264 -48 c0 -8 -19 -13 -24 -6 -3 5 1 9 9 9 8 0 15 -2 15 -3z m1465 -3 c3 -5
2 -12 -3 -15 -5 -3 -9 1 -9 9 0 17 3 19 12 6z m-1521 -22 c-2 -4 2 -10 8 -12
8 -4 9 -6 2 -6 -6 -1 -17 5 -23 12 -8 10 -7 14 4 14 8 0 12 -4 9 -8z m-177
-140 c-9 -6 -15 -15 -11 -20 3 -5 0 -8 -8 -7 -7 2 -12 -3 -10 -10 1 -8 -2 -11
-7 -8 -5 4 -11 0 -14 -6 -2 -7 -7 -10 -10 -7 -4 3 10 22 30 42 20 21 39 35 42
32 3 -4 -2 -11 -12 -16z m-97 -143 c0 -2 -7 -7 -16 -10 -8 -3 -12 -2 -9 4 6
10 25 14 25 6z m-195 -325 c3 -5 2 -12 -3 -15 -5 -3 -9 1 -9 9 0 17 3 19 12 6z
m2950 -161 c3 -5 2 -10 -4 -10 -5 0 -13 5 -16 10 -3 6 -2 10 4 10 5 0 13 -4
16 -10z m140 -590 c3 -6 -1 -7 -9 -4 -18 7 -21 14 -7 14 6 0 13 -4 16 -10z m0
-48 c-3 -3 -11 0 -18 7 -9 10 -8 11 6 5 10 -3 15 -9 12 -12z m-3207 -607 c-3
-3 -9 2 -12 12 -6 14 -5 15 5 6 7 -7 10 -15 7 -18z m17 -15 c-3 -5 -12 -10
-18 -10 -7 0 -6 4 3 10 19 12 23 12 15 0z m-1215 -1406 c0 -8 -19 -13 -24 -6
-3 5 1 9 9 9 8 0 15 -2 15 -3z m1082 -48 c7 4 8 2 4 -5 -9 -13 -26 -5 -25 12
0 9 2 8 6 -1 2 -6 10 -9 15 -6z m48 -12 c0 -8 -19 -13 -24 -6 -3 5 1 9 9 9 8
0 15 -2 15 -3z m-2010 -288 c0 -2 -8 -10 -17 -17 -16 -13 -17 -12 -4 4 13 16
21 21 21 13z m4724 -124 c3 -5 -1 -9 -9 -9 -8 0 -12 4 -9 9 3 4 7 8 9 8 2 0 6
-4 9 -8z m-197 -84 c-3 -8 -6 -5 -6 6 -1 11 2 17 5 13 3 -3 4 -12 1 -19z
m-4952 -158 c3 -6 -1 -7 -9 -4 -18 7 -21 14 -7 14 6 0 13 -4 16 -10z m6340
-158 c-3 -3 -11 0 -18 7 -9 10 -8 11 6 5 10 -3 15 -9 12 -12z m170 -122 c3 -6
-1 -7 -9 -4 -18 7 -21 14 -7 14 6 0 13 -4 16 -10z m381 -886 c1 -9 0 -13 -4
-10 -3 4 -7 14 -8 22 -1 9 0 13 4 10 3 -4 7 -14 8 -22z"/>
<path d="M4907 6589 c7 -7 15 -10 18 -7 3 3 -2 9 -12 12 -14 6 -15 5 -6 -5z"/>
<path d="M2346 3037 c3 -10 9 -15 12 -12 3 3 0 11 -7 18 -10 9 -11 8 -5 -6z"/>
<path d="M3070 2995 c-7 -8 -17 -12 -23 -8 -6 3 -7 1 -3 -6 5 -8 12 -9 19 -2
7 5 15 10 20 10 8 1 11 11 4 17 -2 2 -10 -2 -17 -11z"/>
<path d="M2677 2915 c3 -8 9 -12 14 -9 12 7 11 11 -5 17 -10 4 -13 1 -9 -8z"/>
<path d="M5443 2655 c0 -8 4 -12 9 -9 4 3 8 9 8 15 0 5 -4 9 -8 9 -5 0 -9 -7
-9 -15z"/>
<path d="M5467 2579 c7 -7 15 -10 18 -7 3 3 -2 9 -12 12 -14 6 -15 5 -6 -5z"/>
<path d="M5970 2489 c0 -5 5 -7 10 -4 6 3 10 8 10 11 0 2 -4 4 -10 4 -5 0 -10
-5 -10 -11z"/>
<path d="M476 2273 c-6 -14 -5 -15 5 -6 7 7 10 15 7 18 -3 3 -9 -2 -12 -12z"/>
<path d="M116 1733 c-6 -14 -5 -15 5 -6 7 7 10 15 7 18 -3 3 -9 -2 -12 -12z"/>
<path d="M7323 1605 c0 -8 4 -12 9 -9 5 3 6 10 3 15 -9 13 -12 11 -12 -6z"/>
<path d="M1206 102 c-2 -4 -1 -14 4 -22 7 -11 9 -9 7 8 -1 24 -3 26 -11 14z"/>
</g>
</svg>
